<svg width="482" height="199" viewBox="0 0 482 199" fill="none" xmlns="http://www.w3.org/2000/svg">
<path d="M23.1999 56.0803C34.7919 56.0803 43.1439 50.3923 43.1439 40.2403C43.1439 28.2883 33.7119 25.6243 23.3439 23.5363C15.2799 21.8803 9.44793 20.2243 9.44793 14.3923C9.44793 9.06427 14.0559 6.18428 21.1119 6.18428C28.6719 6.18428 33.3519 9.71228 34.2879 16.1923H41.4159C40.1199 7.04828 34.2159 0.424276 21.0399 0.424276C10.0239 0.424276 2.46393 5.75228 2.46393 14.7523C2.46393 25.0483 10.5999 27.7843 20.1759 29.8003C29.5359 31.8883 35.7279 33.5443 35.7279 40.5283C35.7279 47.0083 30.5439 50.1763 23.4159 50.1763C13.6959 50.1763 8.36793 45.7123 7.50393 37.6483H0.231934C0.807934 47.8723 8.22393 56.0803 23.1999 56.0803Z" fill="#D9D9D9"/>
<path d="M23.1999 56.0803C34.7919 56.0803 43.1439 50.3923 43.1439 40.2403C43.1439 28.2883 33.7119 25.6243 23.3439 23.5363C15.2799 21.8803 9.44793 20.2243 9.44793 14.3923C9.44793 9.06427 14.0559 6.18428 21.1119 6.18428C28.6719 6.18428 33.3519 9.71228 34.2879 16.1923H41.4159C40.1199 7.04828 34.2159 0.424276 21.0399 0.424276C10.0239 0.424276 2.46393 5.75228 2.46393 14.7523C2.46393 25.0483 10.5999 27.7843 20.1759 29.8003C29.5359 31.8883 35.7279 33.5443 35.7279 40.5283C35.7279 47.0083 30.5439 50.1763 23.4159 50.1763C13.6959 50.1763 8.36793 45.7123 7.50393 37.6483H0.231934C0.807934 47.8723 8.22393 56.0803 23.1999 56.0803Z" fill="url(#paint0_linear_103_399)"/>
<path d="M75.1029 56.0803C82.0149 56.0803 87.4869 54.1363 91.2309 50.3923C95.0469 46.7203 97.5669 40.8163 97.6389 35.4883H90.2949C89.6469 43.1203 84.9669 49.6723 75.2469 49.6723C64.4469 49.6723 57.3909 41.0323 57.3909 28.2163C57.3909 15.9043 63.7989 6.68828 75.1749 6.68828C83.3829 6.68828 88.4949 11.0803 89.7189 17.6323H97.0629C96.3429 12.5203 94.0389 8.12828 90.2229 5.03228C86.6229 2.08028 81.5829 0.280273 75.3189 0.280273C59.4069 0.280273 49.9029 12.4483 49.9029 28.2163C49.9029 44.4163 59.8389 56.0803 75.1029 56.0803Z" fill="#D9D9D9"/>
<path d="M75.1029 56.0803C82.0149 56.0803 87.4869 54.1363 91.2309 50.3923C95.0469 46.7203 97.5669 40.8163 97.6389 35.4883H90.2949C89.6469 43.1203 84.9669 49.6723 75.2469 49.6723C64.4469 49.6723 57.3909 41.0323 57.3909 28.2163C57.3909 15.9043 63.7989 6.68828 75.1749 6.68828C83.3829 6.68828 88.4949 11.0803 89.7189 17.6323H97.0629C96.3429 12.5203 94.0389 8.12828 90.2229 5.03228C86.6229 2.08028 81.5829 0.280273 75.3189 0.280273C59.4069 0.280273 49.9029 12.4483 49.9029 28.2163C49.9029 44.4163 59.8389 56.0803 75.1029 56.0803Z" fill="url(#paint1_linear_103_399)"/>
<path d="M126.141 55.7923C137.877 55.7923 146.805 50.4643 146.805 37.5763V1.43228H139.461V36.9283C139.461 45.7123 134.565 49.5283 126.285 49.5283C117.717 49.5283 112.821 45.7123 112.821 36.9283V1.43228H105.477V37.5763C105.477 50.4643 114.117 55.7923 126.141 55.7923Z" fill="#D9D9D9"/>
<path d="M126.141 55.7923C137.877 55.7923 146.805 50.4643 146.805 37.5763V1.43228H139.461V36.9283C139.461 45.7123 134.565 49.5283 126.285 49.5283C117.717 49.5283 112.821 45.7123 112.821 36.9283V1.43228H105.477V37.5763C105.477 50.4643 114.117 55.7923 126.141 55.7923Z" fill="url(#paint2_linear_103_399)"/>
<path d="M157.036 55.0003H192.1V48.3043H164.38V1.43228H157.036V55.0003Z" fill="#D9D9D9"/>
<path d="M157.036 55.0003H192.1V48.3043H164.38V1.43228H157.036V55.0003Z" fill="url(#paint3_linear_103_399)"/>
<path d="M199.856 55.0003H207.272V32.9683H221.672C233.264 32.9683 239.024 26.9923 239.024 17.1283C239.024 12.8803 237.584 9.42428 235.208 6.61627C232.472 3.30427 228.08 1.43228 222.392 1.43228H199.856V55.0003ZM207.272 7.84028H221.24C227.864 7.84028 231.68 11.0803 231.68 17.3443C231.68 23.3203 228.224 26.9923 220.952 26.9923H207.272V7.84028Z" fill="#D9D9D9"/>
<path d="M199.856 55.0003H207.272V32.9683H221.672C233.264 32.9683 239.024 26.9923 239.024 17.1283C239.024 12.8803 237.584 9.42428 235.208 6.61627C232.472 3.30427 228.08 1.43228 222.392 1.43228H199.856V55.0003ZM207.272 7.84028H221.24C227.864 7.84028 231.68 11.0803 231.68 17.3443C231.68 23.3203 228.224 26.9923 220.952 26.9923H207.272V7.84028Z" fill="url(#paint4_linear_103_399)"/>
<path d="M243.162 7.91227H260.73V55.0003H268.146V7.91227H285.786V1.43228H243.162V7.91227Z" fill="#D9D9D9"/>
<path d="M243.162 7.91227H260.73V55.0003H268.146V7.91227H285.786V1.43228H243.162V7.91227Z" fill="url(#paint5_linear_103_399)"/>
<path d="M313.383 55.7923C325.119 55.7923 334.047 50.4643 334.047 37.5763V1.43228H326.703V36.9283C326.703 45.7123 321.807 49.5283 313.527 49.5283C304.959 49.5283 300.063 45.7123 300.063 36.9283V1.43228H292.719V37.5763C292.719 50.4643 301.359 55.7923 313.383 55.7923Z" fill="#D9D9D9"/>
<path d="M313.383 55.7923C325.119 55.7923 334.047 50.4643 334.047 37.5763V1.43228H326.703V36.9283C326.703 45.7123 321.807 49.5283 313.527 49.5283C304.959 49.5283 300.063 45.7123 300.063 36.9283V1.43228H292.719V37.5763C292.719 50.4643 301.359 55.7923 313.383 55.7923Z" fill="url(#paint6_linear_103_399)"/>
<path d="M344.278 55.0003H351.622V32.6803H365.878C372.862 32.6803 376.03 35.4163 376.534 42.9763C377.11 51.5443 377.254 53.9923 378.478 55.0003H386.326V54.6403C385.246 53.9203 384.526 51.3283 383.878 42.9043C383.374 35.2003 381.646 31.6003 375.598 29.8003V29.5843C382.726 27.3523 385.39 22.7443 385.39 16.1923C385.39 7.33627 378.91 1.43228 369.334 1.43228H344.278V55.0003ZM351.622 7.76828H367.318C374.878 7.76828 377.83 11.0083 377.83 17.2723C377.83 23.1043 374.23 26.7763 366.958 26.7763H351.622V7.76828Z" fill="#D9D9D9"/>
<path d="M344.278 55.0003H351.622V32.6803H365.878C372.862 32.6803 376.03 35.4163 376.534 42.9763C377.11 51.5443 377.254 53.9923 378.478 55.0003H386.326V54.6403C385.246 53.9203 384.526 51.3283 383.878 42.9043C383.374 35.2003 381.646 31.6003 375.598 29.8003V29.5843C382.726 27.3523 385.39 22.7443 385.39 16.1923C385.39 7.33627 378.91 1.43228 369.334 1.43228H344.278V55.0003ZM351.622 7.76828H367.318C374.878 7.76828 377.83 11.0083 377.83 17.2723C377.83 23.1043 374.23 26.7763 366.958 26.7763H351.622V7.76828Z" fill="url(#paint7_linear_103_399)"/>
<path d="M394.692 55.0003H433.572V48.3043H402.036V30.2323H429.828V24.1123H402.036V7.91227H432.78V1.43228H394.692V55.0003Z" fill="#D9D9D9"/>
<path d="M394.692 55.0003H433.572V48.3043H402.036V30.2323H429.828V24.1123H402.036V7.91227H432.78V1.43228H394.692V55.0003Z" fill="url(#paint8_linear_103_399)"/>
<path d="M461.598 56.0803C473.19 56.0803 481.542 50.3923 481.542 40.2403C481.542 28.2883 472.11 25.6243 461.742 23.5363C453.678 21.8803 447.846 20.2243 447.846 14.3923C447.846 9.06427 452.454 6.18428 459.51 6.18428C467.07 6.18428 471.75 9.71228 472.686 16.1923H479.814C478.518 7.04828 472.614 0.424276 459.438 0.424276C448.422 0.424276 440.862 5.75228 440.862 14.7523C440.862 25.0483 448.998 27.7843 458.574 29.8003C467.934 31.8883 474.126 33.5443 474.126 40.5283C474.126 47.0083 468.942 50.1763 461.814 50.1763C452.094 50.1763 446.766 45.7123 445.902 37.6483H438.63C439.206 47.8723 446.622 56.0803 461.598 56.0803Z" fill="#D9D9D9"/>
<path d="M461.598 56.0803C473.19 56.0803 481.542 50.3923 481.542 40.2403C481.542 28.2883 472.11 25.6243 461.742 23.5363C453.678 21.8803 447.846 20.2243 447.846 14.3923C447.846 9.06427 452.454 6.18428 459.51 6.18428C467.07 6.18428 471.75 9.71228 472.686 16.1923H479.814C478.518 7.04828 472.614 0.424276 459.438 0.424276C448.422 0.424276 440.862 5.75228 440.862 14.7523C440.862 25.0483 448.998 27.7843 458.574 29.8003C467.934 31.8883 474.126 33.5443 474.126 40.5283C474.126 47.0083 468.942 50.1763 461.814 50.1763C452.094 50.1763 446.766 45.7123 445.902 37.6483H438.63C439.206 47.8723 446.622 56.0803 461.598 56.0803Z" fill="url(#paint9_linear_103_399)"/>
<path d="M23.1999 198.08C34.7919 198.08 43.1439 192.392 43.1439 182.24C43.1439 170.288 33.7119 167.624 23.3439 165.536C15.2799 163.88 9.44793 162.224 9.44793 156.392C9.44793 151.064 14.0559 148.184 21.1119 148.184C28.6719 148.184 33.3519 151.712 34.2879 158.192H41.4159C40.1199 149.048 34.2159 142.424 21.0399 142.424C10.0239 142.424 2.46393 147.752 2.46393 156.752C2.46393 167.048 10.5999 169.784 20.1759 171.8C29.5359 173.888 35.7279 175.544 35.7279 182.528C35.7279 189.008 30.5439 192.176 23.4159 192.176C13.6959 192.176 8.36793 187.712 7.50393 179.648H0.231934C0.807934 189.872 8.22393 198.08 23.1999 198.08Z" fill="#D9D9D9"/>
<path d="M23.1999 198.08C34.7919 198.08 43.1439 192.392 43.1439 182.24C43.1439 170.288 33.7119 167.624 23.3439 165.536C15.2799 163.88 9.44793 162.224 9.44793 156.392C9.44793 151.064 14.0559 148.184 21.1119 148.184C28.6719 148.184 33.3519 151.712 34.2879 158.192H41.4159C40.1199 149.048 34.2159 142.424 21.0399 142.424C10.0239 142.424 2.46393 147.752 2.46393 156.752C2.46393 167.048 10.5999 169.784 20.1759 171.8C29.5359 173.888 35.7279 175.544 35.7279 182.528C35.7279 189.008 30.5439 192.176 23.4159 192.176C13.6959 192.176 8.36793 187.712 7.50393 179.648H0.231934C0.807934 189.872 8.22393 198.08 23.1999 198.08Z" fill="url(#paint10_linear_103_399)"/>
<path d="M46.0757 149.912H63.6437V197H71.0597V149.912H88.6997V143.432H46.0757V149.912Z" fill="#D9D9D9"/>
<path d="M46.0757 149.912H63.6437V197H71.0597V149.912H88.6997V143.432H46.0757V149.912Z" fill="url(#paint11_linear_103_399)"/>
<path d="M96.6411 197H103.985V143.432H96.6411V197Z" fill="#D9D9D9"/>
<path d="M96.6411 197H103.985V143.432H96.6411V197Z" fill="url(#paint12_linear_103_399)"/>
<path d="M138.384 198.08C145.296 198.08 150.768 196.136 154.512 192.392C158.328 188.72 160.848 182.816 160.92 177.488H153.576C152.928 185.12 148.248 191.672 138.528 191.672C127.728 191.672 120.672 183.032 120.672 170.216C120.672 157.904 127.08 148.688 138.456 148.688C146.664 148.688 151.776 153.08 153 159.632H160.344C159.624 154.52 157.32 150.128 153.504 147.032C149.904 144.08 144.864 142.28 138.6 142.28C122.688 142.28 113.184 154.448 113.184 170.216C113.184 186.416 123.12 198.08 138.384 198.08Z" fill="#D9D9D9"/>
<path d="M138.384 198.08C145.296 198.08 150.768 196.136 154.512 192.392C158.328 188.72 160.848 182.816 160.92 177.488H153.576C152.928 185.12 148.248 191.672 138.528 191.672C127.728 191.672 120.672 183.032 120.672 170.216C120.672 157.904 127.08 148.688 138.456 148.688C146.664 148.688 151.776 153.08 153 159.632H160.344C159.624 154.52 157.32 150.128 153.504 147.032C149.904 144.08 144.864 142.28 138.6 142.28C122.688 142.28 113.184 154.448 113.184 170.216C113.184 186.416 123.12 198.08 138.384 198.08Z" fill="url(#paint13_linear_103_399)"/>
<path d="M169.622 197H176.966V177.632L185.102 169.64L204.902 197H213.47L190.214 164.888L211.742 143.36H202.526L176.678 169.856C176.822 167.264 176.966 163.592 176.966 159.992V143.432H169.622V197Z" fill="#D9D9D9"/>
<path d="M169.622 197H176.966V177.632L185.102 169.64L204.902 197H213.47L190.214 164.888L211.742 143.36H202.526L176.678 169.856C176.822 167.264 176.966 163.592 176.966 159.992V143.432H169.622V197Z" fill="url(#paint14_linear_103_399)"/>
<path d="M218.981 197H257.861V190.304H226.325V172.232H254.117V166.112H226.325V149.912H257.069V143.432H218.981V197Z" fill="#D9D9D9"/>
<path d="M218.981 197H257.861V190.304H226.325V172.232H254.117V166.112H226.325V149.912H257.069V143.432H218.981V197Z" fill="url(#paint15_linear_103_399)"/>
<path d="M266.935 197H274.279V174.68H288.535C295.519 174.68 298.687 177.416 299.191 184.976C299.767 193.544 299.911 195.992 301.135 197H308.983V196.64C307.903 195.92 307.183 193.328 306.535 184.904C306.031 177.2 304.303 173.6 298.255 171.8V171.584C305.383 169.352 308.047 164.744 308.047 158.192C308.047 149.336 301.567 143.432 291.991 143.432H266.935V197ZM274.279 149.768H289.975C297.535 149.768 300.487 153.008 300.487 159.272C300.487 165.104 296.887 168.776 289.615 168.776H274.279V149.768Z" fill="#D9D9D9"/>
<path d="M266.935 197H274.279V174.68H288.535C295.519 174.68 298.687 177.416 299.191 184.976C299.767 193.544 299.911 195.992 301.135 197H308.983V196.64C307.903 195.92 307.183 193.328 306.535 184.904C306.031 177.2 304.303 173.6 298.255 171.8V171.584C305.383 169.352 308.047 164.744 308.047 158.192C308.047 149.336 301.567 143.432 291.991 143.432H266.935V197ZM274.279 149.768H289.975C297.535 149.768 300.487 153.008 300.487 159.272C300.487 165.104 296.887 168.776 289.615 168.776H274.279V149.768Z" fill="url(#paint16_linear_103_399)"/>
<path d="M240.908 89.2123C240.908 101.53 236.651 112.566 228.136 122.32C219.621 131.992 210.156 138.027 199.74 140.424C196.681 141.168 193.747 141.54 190.936 141.54C183.248 141.54 176.883 138.688 171.84 132.984C166.797 127.28 164.276 120.088 164.276 111.408C164.276 99.9176 168.203 90.4109 176.056 82.8883C181.016 78.0936 187.092 74.8283 194.284 73.0923C196.433 72.6789 198.417 72.4723 200.236 72.4723C204.369 72.4723 207.387 73.4643 209.288 75.4483C211.189 77.3496 211.727 78.3003 210.9 78.3003L208.916 77.3083C207.18 76.6469 205.651 76.3163 204.328 76.3163C203.088 76.3163 202.013 76.4403 201.104 76.6883C191.184 79.0029 183.165 84.9549 177.048 94.5443C172.336 101.984 169.98 109.466 169.98 116.988C169.98 127.322 173.741 134.018 181.264 137.076C183.744 138.151 186.431 138.688 189.324 138.688C192.3 138.688 195.317 138.316 198.376 137.572C203.915 136.332 209.536 132.902 215.24 127.28C220.944 121.576 225.615 114.88 229.252 107.192C232.889 99.5043 234.708 92.3123 234.708 85.6163C234.708 76.8536 232.104 70.3229 226.896 66.0243C222.515 62.5523 216.769 60.8163 209.66 60.8163C208.585 60.8163 207.428 60.8576 206.188 60.9403C197.012 61.5189 188.539 64.6189 180.768 70.2403C175.064 74.2083 170.269 79.1269 166.384 84.9963C162.499 90.8656 160.349 96.6936 159.936 102.48C159.853 103.803 159.44 104.134 158.696 103.472C158.035 102.728 157.704 101.654 157.704 100.248C157.704 94.2963 159.44 88.4683 162.912 82.7643C166.467 76.9776 171.179 71.9763 177.048 67.7603C181.181 64.7843 185.893 62.4283 191.184 60.6923C196.557 58.8736 201.683 57.9229 206.56 57.8403C216.728 57.8403 224.995 60.6096 231.36 66.1483C237.725 71.6869 240.908 79.3749 240.908 89.2123Z" fill="#D9D9D9"/>
<path d="M240.908 89.2123C240.908 101.53 236.651 112.566 228.136 122.32C219.621 131.992 210.156 138.027 199.74 140.424C196.681 141.168 193.747 141.54 190.936 141.54C183.248 141.54 176.883 138.688 171.84 132.984C166.797 127.28 164.276 120.088 164.276 111.408C164.276 99.9176 168.203 90.4109 176.056 82.8883C181.016 78.0936 187.092 74.8283 194.284 73.0923C196.433 72.6789 198.417 72.4723 200.236 72.4723C204.369 72.4723 207.387 73.4643 209.288 75.4483C211.189 77.3496 211.727 78.3003 210.9 78.3003L208.916 77.3083C207.18 76.6469 205.651 76.3163 204.328 76.3163C203.088 76.3163 202.013 76.4403 201.104 76.6883C191.184 79.0029 183.165 84.9549 177.048 94.5443C172.336 101.984 169.98 109.466 169.98 116.988C169.98 127.322 173.741 134.018 181.264 137.076C183.744 138.151 186.431 138.688 189.324 138.688C192.3 138.688 195.317 138.316 198.376 137.572C203.915 136.332 209.536 132.902 215.24 127.28C220.944 121.576 225.615 114.88 229.252 107.192C232.889 99.5043 234.708 92.3123 234.708 85.6163C234.708 76.8536 232.104 70.3229 226.896 66.0243C222.515 62.5523 216.769 60.8163 209.66 60.8163C208.585 60.8163 207.428 60.8576 206.188 60.9403C197.012 61.5189 188.539 64.6189 180.768 70.2403C175.064 74.2083 170.269 79.1269 166.384 84.9963C162.499 90.8656 160.349 96.6936 159.936 102.48C159.853 103.803 159.44 104.134 158.696 103.472C158.035 102.728 157.704 101.654 157.704 100.248C157.704 94.2963 159.44 88.4683 162.912 82.7643C166.467 76.9776 171.179 71.9763 177.048 67.7603C181.181 64.7843 185.893 62.4283 191.184 60.6923C196.557 58.8736 201.683 57.9229 206.56 57.8403C216.728 57.8403 224.995 60.6096 231.36 66.1483C237.725 71.6869 240.908 79.3749 240.908 89.2123Z" fill="url(#paint17_linear_103_399)"/>
<path d="M273.155 123.808C273.403 123.808 273.527 124.056 273.527 124.552C273.527 125.048 272.948 125.875 271.791 127.032L270.551 128.892C268.319 132.282 266.665 134.266 265.591 134.844C264.599 135.423 263.772 135.712 263.111 135.712C262.532 135.712 261.581 135.547 260.259 135.216C259.019 134.968 258.357 134.679 258.275 134.348C258.275 134.018 258.275 133.687 258.275 133.356C258.275 129.306 261.953 120.171 269.311 105.952C267.327 106.2 265.797 106.324 264.723 106.324C263.731 106.324 262.863 106.035 262.119 105.456C261.457 104.795 261.127 103.968 261.127 102.976C261.127 101.984 261.995 101.075 263.731 100.248C265.467 99.4216 266.789 99.0083 267.699 99.0083C268.691 99.0083 269.517 99.4216 270.179 100.248C270.84 100.992 271.253 101.364 271.419 101.364H271.791C273.527 98.2229 275.097 95.3296 276.503 92.6843C277.908 90.0389 278.611 88.3443 278.611 87.6003C278.611 86.7736 278.487 86.1536 278.239 85.7403C278.735 83.3429 280.76 80.2843 284.315 76.5643C287.952 72.8443 291.259 70.9843 294.235 70.9843C295.557 70.9843 297.169 71.5216 299.071 72.5963C300.972 73.5883 301.799 74.9109 301.551 76.5643C300.972 76.1509 300.435 75.9443 299.939 75.9443C294.317 75.9443 286.588 84.3763 276.751 101.24C279.479 100.992 282.331 100.62 285.307 100.124C295.227 98.8843 300.848 98.2643 302.171 98.2643C303.493 98.2643 304.32 98.3056 304.651 98.3883C305.064 98.3883 305.395 98.4709 305.643 98.6363C305.973 98.8016 306.18 98.9669 306.263 99.1323C306.345 99.6283 305.395 100.207 303.411 100.868C298.616 102.439 288.903 104.01 274.271 105.58C267.327 118.146 263.855 125.875 263.855 128.768C263.855 130.174 264.433 130.711 265.591 130.38C266.831 129.967 267.905 129.182 268.815 128.024C270.964 125.214 272.411 123.808 273.155 123.808ZM321.639 64.7843C324.036 62.1389 326.309 60.8163 328.459 60.8163C329.451 60.8163 330.236 61.0643 330.815 61.5603C331.393 62.0563 331.683 62.5523 331.683 63.0483C331.683 63.5443 331.435 64.0403 330.939 64.5363C330.443 65.0323 329.492 65.8176 328.087 66.8923C326.681 67.8843 325.565 68.7936 324.739 69.6203C320.771 73.5056 318.787 76.8536 318.787 79.6643C318.787 80.9043 319.035 81.9376 319.531 82.7643C320.109 83.5909 320.068 84.1283 319.407 84.3763C318.745 84.5416 318.125 84.2523 317.547 83.5083C316.803 83.0123 316.431 81.3589 316.431 78.5483C316.431 74.8283 317.092 71.7283 318.415 69.2483C318.58 69.0003 318.828 68.5869 319.159 68.0083C319.572 67.3469 319.903 66.8923 320.151 66.6443C319.572 66.6443 318.001 66.6443 315.439 66.6443C312.959 66.6443 307.957 66.3136 300.435 65.6523C292.995 64.9909 287.373 64.6603 283.571 64.6603C279.768 64.6603 276.833 64.9083 274.767 65.4043C266.913 66.4789 260.135 68.6696 254.431 71.9763C248.809 75.2003 245.461 79.2923 244.387 84.2523C244.221 84.7483 244.139 85.3683 244.139 86.1123C244.139 86.7736 244.345 87.6003 244.759 88.5923C245.255 89.5843 245.833 90.3696 246.495 90.9483C247.156 91.5269 248.148 92.2296 249.471 93.0563C250.876 93.8829 251.785 94.5029 252.199 94.9163C252.695 95.2469 252.777 95.5363 252.447 95.7843C252.199 96.0323 251.909 96.1563 251.579 96.1563C251.331 96.1563 251.041 96.1149 250.711 96.0323C247.9 95.2056 245.503 93.6763 243.519 91.4443C241.617 89.1296 240.667 87.2283 240.667 85.7403C240.667 84.1696 240.873 82.8469 241.287 81.7723C241.287 80.8629 241.328 80.2016 241.411 79.7883C242.651 73.9189 246.412 69.3723 252.695 66.1483C260.217 62.2629 269.393 60.3203 280.223 60.3203C286.175 60.3203 293.491 61.0229 302.171 62.4283C310.851 63.8336 317.34 64.6189 321.639 64.7843Z" fill="#D9D9D9"/>
<path d="M273.155 123.808C273.403 123.808 273.527 124.056 273.527 124.552C273.527 125.048 272.948 125.875 271.791 127.032L270.551 128.892C268.319 132.282 266.665 134.266 265.591 134.844C264.599 135.423 263.772 135.712 263.111 135.712C262.532 135.712 261.581 135.547 260.259 135.216C259.019 134.968 258.357 134.679 258.275 134.348C258.275 134.018 258.275 133.687 258.275 133.356C258.275 129.306 261.953 120.171 269.311 105.952C267.327 106.2 265.797 106.324 264.723 106.324C263.731 106.324 262.863 106.035 262.119 105.456C261.457 104.795 261.127 103.968 261.127 102.976C261.127 101.984 261.995 101.075 263.731 100.248C265.467 99.4216 266.789 99.0083 267.699 99.0083C268.691 99.0083 269.517 99.4216 270.179 100.248C270.84 100.992 271.253 101.364 271.419 101.364H271.791C273.527 98.2229 275.097 95.3296 276.503 92.6843C277.908 90.0389 278.611 88.3443 278.611 87.6003C278.611 86.7736 278.487 86.1536 278.239 85.7403C278.735 83.3429 280.76 80.2843 284.315 76.5643C287.952 72.8443 291.259 70.9843 294.235 70.9843C295.557 70.9843 297.169 71.5216 299.071 72.5963C300.972 73.5883 301.799 74.9109 301.551 76.5643C300.972 76.1509 300.435 75.9443 299.939 75.9443C294.317 75.9443 286.588 84.3763 276.751 101.24C279.479 100.992 282.331 100.62 285.307 100.124C295.227 98.8843 300.848 98.2643 302.171 98.2643C303.493 98.2643 304.32 98.3056 304.651 98.3883C305.064 98.3883 305.395 98.4709 305.643 98.6363C305.973 98.8016 306.18 98.9669 306.263 99.1323C306.345 99.6283 305.395 100.207 303.411 100.868C298.616 102.439 288.903 104.01 274.271 105.58C267.327 118.146 263.855 125.875 263.855 128.768C263.855 130.174 264.433 130.711 265.591 130.38C266.831 129.967 267.905 129.182 268.815 128.024C270.964 125.214 272.411 123.808 273.155 123.808ZM321.639 64.7843C324.036 62.1389 326.309 60.8163 328.459 60.8163C329.451 60.8163 330.236 61.0643 330.815 61.5603C331.393 62.0563 331.683 62.5523 331.683 63.0483C331.683 63.5443 331.435 64.0403 330.939 64.5363C330.443 65.0323 329.492 65.8176 328.087 66.8923C326.681 67.8843 325.565 68.7936 324.739 69.6203C320.771 73.5056 318.787 76.8536 318.787 79.6643C318.787 80.9043 319.035 81.9376 319.531 82.7643C320.109 83.5909 320.068 84.1283 319.407 84.3763C318.745 84.5416 318.125 84.2523 317.547 83.5083C316.803 83.0123 316.431 81.3589 316.431 78.5483C316.431 74.8283 317.092 71.7283 318.415 69.2483C318.58 69.0003 318.828 68.5869 319.159 68.0083C319.572 67.3469 319.903 66.8923 320.151 66.6443C319.572 66.6443 318.001 66.6443 315.439 66.6443C312.959 66.6443 307.957 66.3136 300.435 65.6523C292.995 64.9909 287.373 64.6603 283.571 64.6603C279.768 64.6603 276.833 64.9083 274.767 65.4043C266.913 66.4789 260.135 68.6696 254.431 71.9763C248.809 75.2003 245.461 79.2923 244.387 84.2523C244.221 84.7483 244.139 85.3683 244.139 86.1123C244.139 86.7736 244.345 87.6003 244.759 88.5923C245.255 89.5843 245.833 90.3696 246.495 90.9483C247.156 91.5269 248.148 92.2296 249.471 93.0563C250.876 93.8829 251.785 94.5029 252.199 94.9163C252.695 95.2469 252.777 95.5363 252.447 95.7843C252.199 96.0323 251.909 96.1563 251.579 96.1563C251.331 96.1563 251.041 96.1149 250.711 96.0323C247.9 95.2056 245.503 93.6763 243.519 91.4443C241.617 89.1296 240.667 87.2283 240.667 85.7403C240.667 84.1696 240.873 82.8469 241.287 81.7723C241.287 80.8629 241.328 80.2016 241.411 79.7883C242.651 73.9189 246.412 69.3723 252.695 66.1483C260.217 62.2629 269.393 60.3203 280.223 60.3203C286.175 60.3203 293.491 61.0229 302.171 62.4283C310.851 63.8336 317.34 64.6189 321.639 64.7843Z" fill="url(#paint18_linear_103_399)"/>
<defs>
<linearGradient id="paint0_linear_103_399" x1="240.518" y1="0.280272" x2="240.518" y2="197.777" gradientUnits="userSpaceOnUse">
<stop stop-color="#A3A3A3"/>
<stop offset="0.265625" stop-color="#EFEFEF"/>
<stop offset="0.578125" stop-color="#B5B5B5"/>
<stop offset="0.802083" stop-color="#E0E0E0"/>
<stop offset="1" stop-color="#BFBFBF"/>
</linearGradient>
<linearGradient id="paint1_linear_103_399" x1="240.518" y1="0.280272" x2="240.518" y2="197.777" gradientUnits="userSpaceOnUse">
<stop stop-color="#A3A3A3"/>
<stop offset="0.265625" stop-color="#EFEFEF"/>
<stop offset="0.578125" stop-color="#B5B5B5"/>
<stop offset="0.802083" stop-color="#E0E0E0"/>
<stop offset="1" stop-color="#BFBFBF"/>
</linearGradient>
<linearGradient id="paint2_linear_103_399" x1="240.518" y1="0.280272" x2="240.518" y2="197.777" gradientUnits="userSpaceOnUse">
<stop stop-color="#A3A3A3"/>
<stop offset="0.265625" stop-color="#EFEFEF"/>
<stop offset="0.578125" stop-color="#B5B5B5"/>
<stop offset="0.802083" stop-color="#E0E0E0"/>
<stop offset="1" stop-color="#BFBFBF"/>
</linearGradient>
<linearGradient id="paint3_linear_103_399" x1="240.518" y1="0.280272" x2="240.518" y2="197.777" gradientUnits="userSpaceOnUse">
<stop stop-color="#A3A3A3"/>
<stop offset="0.265625" stop-color="#EFEFEF"/>
<stop offset="0.578125" stop-color="#B5B5B5"/>
<stop offset="0.802083" stop-color="#E0E0E0"/>
<stop offset="1" stop-color="#BFBFBF"/>
</linearGradient>
<linearGradient id="paint4_linear_103_399" x1="240.518" y1="0.280272" x2="240.518" y2="197.777" gradientUnits="userSpaceOnUse">
<stop stop-color="#A3A3A3"/>
<stop offset="0.265625" stop-color="#EFEFEF"/>
<stop offset="0.578125" stop-color="#B5B5B5"/>
<stop offset="0.802083" stop-color="#E0E0E0"/>
<stop offset="1" stop-color="#BFBFBF"/>
</linearGradient>
<linearGradient id="paint5_linear_103_399" x1="240.518" y1="0.280272" x2="240.518" y2="197.777" gradientUnits="userSpaceOnUse">
<stop stop-color="#A3A3A3"/>
<stop offset="0.265625" stop-color="#EFEFEF"/>
<stop offset="0.578125" stop-color="#B5B5B5"/>
<stop offset="0.802083" stop-color="#E0E0E0"/>
<stop offset="1" stop-color="#BFBFBF"/>
</linearGradient>
<linearGradient id="paint6_linear_103_399" x1="240.518" y1="0.280272" x2="240.518" y2="197.777" gradientUnits="userSpaceOnUse">
<stop stop-color="#A3A3A3"/>
<stop offset="0.265625" stop-color="#EFEFEF"/>
<stop offset="0.578125" stop-color="#B5B5B5"/>
<stop offset="0.802083" stop-color="#E0E0E0"/>
<stop offset="1" stop-color="#BFBFBF"/>
</linearGradient>
<linearGradient id="paint7_linear_103_399" x1="240.518" y1="0.280272" x2="240.518" y2="197.777" gradientUnits="userSpaceOnUse">
<stop stop-color="#A3A3A3"/>
<stop offset="0.265625" stop-color="#EFEFEF"/>
<stop offset="0.578125" stop-color="#B5B5B5"/>
<stop offset="0.802083" stop-color="#E0E0E0"/>
<stop offset="1" stop-color="#BFBFBF"/>
</linearGradient>
<linearGradient id="paint8_linear_103_399" x1="240.518" y1="0.280272" x2="240.518" y2="197.777" gradientUnits="userSpaceOnUse">
<stop stop-color="#A3A3A3"/>
<stop offset="0.265625" stop-color="#EFEFEF"/>
<stop offset="0.578125" stop-color="#B5B5B5"/>
<stop offset="0.802083" stop-color="#E0E0E0"/>
<stop offset="1" stop-color="#BFBFBF"/>
</linearGradient>
<linearGradient id="paint9_linear_103_399" x1="240.518" y1="0.280272" x2="240.518" y2="197.777" gradientUnits="userSpaceOnUse">
<stop stop-color="#A3A3A3"/>
<stop offset="0.265625" stop-color="#EFEFEF"/>
<stop offset="0.578125" stop-color="#B5B5B5"/>
<stop offset="0.802083" stop-color="#E0E0E0"/>
<stop offset="1" stop-color="#BFBFBF"/>
</linearGradient>
<linearGradient id="paint10_linear_103_399" x1="240.518" y1="0.280272" x2="240.518" y2="197.777" gradientUnits="userSpaceOnUse">
<stop stop-color="#A3A3A3"/>
<stop offset="0.265625" stop-color="#EFEFEF"/>
<stop offset="0.578125" stop-color="#B5B5B5"/>
<stop offset="0.802083" stop-color="#E0E0E0"/>
<stop offset="1" stop-color="#BFBFBF"/>
</linearGradient>
<linearGradient id="paint11_linear_103_399" x1="240.518" y1="0.280272" x2="240.518" y2="197.777" gradientUnits="userSpaceOnUse">
<stop stop-color="#A3A3A3"/>
<stop offset="0.265625" stop-color="#EFEFEF"/>
<stop offset="0.578125" stop-color="#B5B5B5"/>
<stop offset="0.802083" stop-color="#E0E0E0"/>
<stop offset="1" stop-color="#BFBFBF"/>
</linearGradient>
<linearGradient id="paint12_linear_103_399" x1="240.518" y1="0.280272" x2="240.518" y2="197.777" gradientUnits="userSpaceOnUse">
<stop stop-color="#A3A3A3"/>
<stop offset="0.265625" stop-color="#EFEFEF"/>
<stop offset="0.578125" stop-color="#B5B5B5"/>
<stop offset="0.802083" stop-color="#E0E0E0"/>
<stop offset="1" stop-color="#BFBFBF"/>
</linearGradient>
<linearGradient id="paint13_linear_103_399" x1="240.518" y1="0.280272" x2="240.518" y2="197.777" gradientUnits="userSpaceOnUse">
<stop stop-color="#A3A3A3"/>
<stop offset="0.265625" stop-color="#EFEFEF"/>
<stop offset="0.578125" stop-color="#B5B5B5"/>
<stop offset="0.802083" stop-color="#E0E0E0"/>
<stop offset="1" stop-color="#BFBFBF"/>
</linearGradient>
<linearGradient id="paint14_linear_103_399" x1="240.518" y1="0.280272" x2="240.518" y2="197.777" gradientUnits="userSpaceOnUse">
<stop stop-color="#A3A3A3"/>
<stop offset="0.265625" stop-color="#EFEFEF"/>
<stop offset="0.578125" stop-color="#B5B5B5"/>
<stop offset="0.802083" stop-color="#E0E0E0"/>
<stop offset="1" stop-color="#BFBFBF"/>
</linearGradient>
<linearGradient id="paint15_linear_103_399" x1="240.518" y1="0.280272" x2="240.518" y2="197.777" gradientUnits="userSpaceOnUse">
<stop stop-color="#A3A3A3"/>
<stop offset="0.265625" stop-color="#EFEFEF"/>
<stop offset="0.578125" stop-color="#B5B5B5"/>
<stop offset="0.802083" stop-color="#E0E0E0"/>
<stop offset="1" stop-color="#BFBFBF"/>
</linearGradient>
<linearGradient id="paint16_linear_103_399" x1="240.518" y1="0.280272" x2="240.518" y2="197.777" gradientUnits="userSpaceOnUse">
<stop stop-color="#A3A3A3"/>
<stop offset="0.265625" stop-color="#EFEFEF"/>
<stop offset="0.578125" stop-color="#B5B5B5"/>
<stop offset="0.802083" stop-color="#E0E0E0"/>
<stop offset="1" stop-color="#BFBFBF"/>
</linearGradient>
<linearGradient id="paint17_linear_103_399" x1="240.518" y1="0.280272" x2="240.518" y2="197.777" gradientUnits="userSpaceOnUse">
<stop stop-color="#A3A3A3"/>
<stop offset="0.265625" stop-color="#EFEFEF"/>
<stop offset="0.578125" stop-color="#B5B5B5"/>
<stop offset="0.802083" stop-color="#E0E0E0"/>
<stop offset="1" stop-color="#BFBFBF"/>
</linearGradient>
<linearGradient id="paint18_linear_103_399" x1="240.518" y1="0.280272" x2="240.518" y2="197.777" gradientUnits="userSpaceOnUse">
<stop stop-color="#A3A3A3"/>
<stop offset="0.265625" stop-color="#EFEFEF"/>
<stop offset="0.578125" stop-color="#B5B5B5"/>
<stop offset="0.802083" stop-color="#E0E0E0"/>
<stop offset="1" stop-color="#BFBFBF"/>
</linearGradient>
</defs>
</svg>
