<svg xmlns="http://www.w3.org/2000/svg"  viewBox="0 0 482 199"><defs><linearGradient id="linear-gradient" x1="21.69" y1=".28" x2="21.69" y2="197.78" gradientUnits="userSpaceOnUse"><stop offset="0" stop-color="#a3a3a3"/><stop offset=".27" stop-color="#efefef"/><stop offset=".58" stop-color="#b5b5b5"/><stop offset=".8" stop-color="#e0e0e0"/><stop offset="1" stop-color="#bfbfbf"/></linearGradient><linearGradient id="linear-gradient-2" x1="73.77" y1=".14" x2="73.77" y2="198.14" xlink:href="#linear-gradient"/><linearGradient id="linear-gradient-3" x1="126.14" y1="1.29" x2="126.14" y2="194.19" xlink:href="#linear-gradient"/><linearGradient id="linear-gradient-4" x1="174.57" y1="1.29" x2="174.57" y2="191.38" xlink:href="#linear-gradient"/><linearGradient id="linear-gradient-5" x1="219.44" y1="1.29" x2="219.44" y2="191.38" xlink:href="#linear-gradient"/><linearGradient id="linear-gradient-6" x1="264.47" y1="1.29" x2="264.47" y2="191.38" xlink:href="#linear-gradient"/><linearGradient id="linear-gradient-7" x1="313.38" y1="1.29" x2="313.38" y2="194.19" xlink:href="#linear-gradient"/><linearGradient id="linear-gradient-8" x1="365.3" y1="1.29" x2="365.3" y2="191.38" xlink:href="#linear-gradient"/><linearGradient id="linear-gradient-9" x1="414.13" y1="1.29" x2="414.13" y2="191.38" xlink:href="#linear-gradient"/><linearGradient id="linear-gradient-10" x1="460.09" x2="460.09" xlink:href="#linear-gradient"/><linearGradient id="linear-gradient-11" x1="100.31" y1="197" x2="100.31" y2="143.43" gradientUnits="userSpaceOnUse"><stop offset="0" stop-color="#a3a3a3"/><stop offset=".27" stop-color="#efefef"/><stop offset=".58" stop-color="#b5b5b5"/><stop offset=".8" stop-color="#e0e0e0"/><stop offset="1" stop-color="#bfbfbf"/></linearGradient><linearGradient id="linear-gradient-12" x1="67.39" x2="67.39" xlink:href="#linear-gradient-11"/><linearGradient id="linear-gradient-13" x1="21.69" y1="198.08" x2="21.69" y2="142.42" xlink:href="#linear-gradient-11"/><linearGradient id="linear-gradient-14" x1="191.55" x2="191.55" y2="143.36" xlink:href="#linear-gradient-11"/><linearGradient id="linear-gradient-15" x1="238.42" x2="238.42" xlink:href="#linear-gradient-11"/><linearGradient id="linear-gradient-16" x1="287.96" x2="287.96" xlink:href="#linear-gradient-11"/><linearGradient id="linear-gradient-17" x1="137.05" y1="198.08" x2="137.05" y2="142.28" xlink:href="#linear-gradient-11"/><linearGradient id="linear-gradient-18" x1="282.27" y1="180.22" x2="282.27" y2="27.49" xlink:href="#linear-gradient-11"/><linearGradient id="linear-gradient-19" x1="244.69" y1="199.1" x2="244.69" y2="1.6" xlink:href="#linear-gradient-11"/></defs><g><path d="M23.34,23.54c-8.06-1.66-13.9-3.31-13.9-9.14,0-5.33,4.61-8.21,11.66-8.21,7.56,0,12.24,3.53,13.18,10.01h7.13C40.12,7.05,34.22,.42,21.04,.42,10.02,.42,2.46,5.75,2.46,14.75c0,10.3,8.14,13.03,17.71,15.05,9.36,2.09,15.55,3.74,15.55,10.73,0,6.48-5.18,9.65-12.31,9.65-9.72,0-15.05-4.46-15.91-12.53H.23c.58,10.22,7.99,18.43,22.97,18.43,11.59,0,19.94-5.69,19.94-15.84,0-11.95-9.43-14.62-19.8-16.7Z" style="fill:url(#linear-gradient);"/><path d="M75.25,49.67c-10.8,0-17.86-8.64-17.86-21.46s6.41-21.53,17.78-21.53c8.21,0,13.32,4.39,14.54,10.94h7.34c-.72-5.11-3.02-9.5-6.84-12.6-3.6-2.95-8.64-4.75-14.9-4.75-15.91,0-25.42,12.17-25.42,27.94s9.94,27.86,25.2,27.86c6.91,0,12.38-1.94,16.13-5.69,3.82-3.67,6.34-9.58,6.41-14.9h-7.34c-.65,7.63-5.33,14.18-15.05,14.18Z" style="fill:url(#linear-gradient-2);"/><path d="M139.46,36.93c0,8.78-4.9,12.6-13.18,12.6s-13.46-3.82-13.46-12.6V1.43h-7.34V37.58c0,12.89,8.64,18.22,20.66,18.22s20.66-5.33,20.66-18.22V1.43h-7.34V36.93Z" style="fill:url(#linear-gradient-3);"/><polygon points="164.38 1.43 157.04 1.43 157.04 55 192.1 55 192.1 48.3 164.38 48.3 164.38 1.43" style="fill:url(#linear-gradient-4);"/><path d="M222.39,1.43h-22.54V55h7.42v-22.03h14.4c11.59,0,17.35-5.98,17.35-15.84,0-4.25-1.44-7.7-3.82-10.51-2.74-3.31-7.13-5.18-12.82-5.18Zm-1.44,25.56h-13.68V7.84h13.97c6.62,0,10.44,3.24,10.44,9.5s-3.46,9.65-10.73,9.65Z" style="fill:url(#linear-gradient-5);"/><polygon points="243.16 7.91 260.73 7.91 260.73 55 268.15 55 268.15 7.91 285.79 7.91 285.79 1.43 243.16 1.43 243.16 7.91" style="fill:url(#linear-gradient-6);"/><path d="M326.7,36.93c0,8.78-4.9,12.6-13.18,12.6s-13.46-3.82-13.46-12.6V1.43h-7.34V37.58c0,12.89,8.64,18.22,20.66,18.22s20.66-5.33,20.66-18.22V1.43h-7.34V36.93Z" style="fill:url(#linear-gradient-7);"/><path d="M383.88,42.9c-.5-7.7-2.23-11.3-8.28-13.1v-.22c7.13-2.23,9.79-6.84,9.79-13.39,0-8.86-6.48-14.76-16.06-14.76h-25.06V55h7.34v-22.32h14.26c6.98,0,10.15,2.74,10.66,10.3,.58,8.57,.72,11.02,1.94,12.02h7.85v-.36c-1.08-.72-1.8-3.31-2.45-11.74Zm-16.92-16.13h-15.34V7.77h15.7c7.56,0,10.51,3.24,10.51,9.5,0,5.83-3.6,9.5-10.87,9.5Z" style="fill:url(#linear-gradient-8);"/><polygon points="402.04 30.23 429.83 30.23 429.83 24.11 402.04 24.11 402.04 7.91 432.78 7.91 432.78 1.43 394.69 1.43 394.69 55 433.57 55 433.57 48.3 402.04 48.3 402.04 30.23" style="fill:url(#linear-gradient-9);"/><path d="M461.74,23.54c-8.06-1.66-13.9-3.31-13.9-9.14,0-5.33,4.61-8.21,11.66-8.21,7.56,0,12.24,3.53,13.18,10.01h7.13c-1.3-9.14-7.2-15.77-20.38-15.77-11.02,0-18.58,5.33-18.58,14.33,0,10.3,8.14,13.03,17.71,15.05,9.36,2.09,15.55,3.74,15.55,10.73,0,6.48-5.18,9.65-12.31,9.65-9.72,0-15.05-4.46-15.91-12.53h-7.27c.58,10.22,7.99,18.43,22.97,18.43,11.59,0,19.94-5.69,19.94-15.84,0-11.95-9.43-14.62-19.8-16.7Z" style="fill:url(#linear-gradient-10);"/></g><g><rect x="96.64" y="143.43" width="7.34" height="53.57" style="fill:url(#linear-gradient-11);"/><polygon points="46.08 149.91 63.64 149.91 63.64 197 71.06 197 71.06 149.91 88.7 149.91 88.7 143.43 46.08 143.43 46.08 149.91" style="fill:url(#linear-gradient-12);"/><path d="M23.34,165.54c-8.06-1.66-13.9-3.31-13.9-9.14,0-5.33,4.61-8.21,11.66-8.21,7.56,0,12.24,3.53,13.18,10.01h7.13c-1.3-9.14-7.2-15.77-20.38-15.77-11.02,0-18.58,5.33-18.58,14.33,0,10.3,8.14,13.03,17.71,15.05,9.36,2.09,15.55,3.74,15.55,10.73,0,6.48-5.18,9.65-12.31,9.65-9.72,0-15.05-4.46-15.91-12.53H.23c.58,10.22,7.99,18.43,22.97,18.43,11.59,0,19.94-5.69,19.94-15.84,0-11.95-9.43-14.62-19.8-16.7Z" style="fill:url(#linear-gradient-13);"/><path d="M211.74,143.36h-9.22l-25.85,26.5c.14-2.59,.29-6.26,.29-9.86v-16.56h-7.34v53.57h7.34v-19.37l8.14-7.99,19.8,27.36h8.57l-23.26-32.11,21.53-21.53Z" style="fill:url(#linear-gradient-14);"/><polygon points="226.33 172.23 254.12 172.23 254.12 166.11 226.33 166.11 226.33 149.91 257.07 149.91 257.07 143.43 218.98 143.43 218.98 197 257.86 197 257.86 190.3 226.33 190.3 226.33 172.23" style="fill:url(#linear-gradient-15);"/><path d="M306.54,184.9c-.5-7.7-2.23-11.3-8.28-13.1v-.22c7.13-2.23,9.79-6.84,9.79-13.39,0-8.86-6.48-14.76-16.06-14.76h-25.06v53.57h7.34v-22.32h14.26c6.98,0,10.15,2.74,10.66,10.3,.58,8.57,.72,11.02,1.94,12.02h7.85v-.36c-1.08-.72-1.8-3.31-2.45-11.74Zm-16.92-16.13h-15.34v-19.01h15.7c7.56,0,10.51,3.24,10.51,9.5,0,5.83-3.6,9.5-10.87,9.5Z" style="fill:url(#linear-gradient-16);"/><path d="M138.53,191.67c-10.8,0-17.86-8.64-17.86-21.46s6.41-21.53,17.78-21.53c8.21,0,13.32,4.39,14.54,10.94h7.34c-.72-5.11-3.02-9.5-6.84-12.6-3.6-2.95-8.64-4.75-14.9-4.75-15.91,0-25.42,12.17-25.42,27.94s9.94,27.86,25.2,27.86c6.91,0,12.38-1.94,16.13-5.69,3.82-3.67,6.34-9.58,6.41-14.9h-7.34c-.65,7.63-5.33,14.18-15.05,14.18Z" style="fill:url(#linear-gradient-17);"/></g><g><path d="M305.64,98.64c-.25-.17-.58-.25-.99-.25-.33-.08-1.16-.12-2.48-.12s-6.94,.62-16.86,1.86c-2.98,.5-5.83,.87-8.56,1.12,9.84-16.86,17.57-25.3,23.19-25.3,.5,0,1.03,.21,1.61,.62,.25-1.65-.58-2.98-2.48-3.97-1.9-1.07-3.51-1.61-4.84-1.61-2.98,0-6.28,1.86-9.92,5.58-3.55,3.72-5.58,6.78-6.08,9.18,.25,.41,.37,1.03,.37,1.86,0,.74-.7,2.44-2.11,5.08-1.41,2.65-2.98,5.54-4.71,8.68h-.37c-.17,0-.58-.37-1.24-1.12-.66-.83-1.49-1.24-2.48-1.24-.91,0-2.23,.41-3.97,1.24-1.74,.83-2.6,1.74-2.6,2.73s.33,1.82,.99,2.48c.74,.58,1.61,.87,2.6,.87,1.07,0,2.6-.12,4.59-.37-7.36,14.22-11.04,23.35-11.04,27.4v.99c.08,.33,.74,.62,1.98,.87,1.32,.33,2.27,.5,2.85,.5,.66,0,1.49-.29,2.48-.87,1.07-.58,2.73-2.56,4.96-5.95l1.24-1.86c1.16-1.16,1.74-1.98,1.74-2.48s-.12-.74-.37-.74c-.74,0-2.19,1.41-4.34,4.22-.91,1.16-1.98,1.94-3.22,2.36-1.16,.33-1.74-.21-1.74-1.61,0-2.89,3.47-10.62,10.42-23.19,14.63-1.57,24.35-3.14,29.14-4.71,1.98-.66,2.93-1.24,2.85-1.74-.08-.17-.29-.33-.62-.5Z" style="fill:url(#linear-gradient-18);"/><path d="M330.82,61.56c-.58-.5-1.36-.74-2.36-.74-2.15,0-4.42,1.32-6.82,3.97-4.3-.17-10.79-.95-19.47-2.36-8.68-1.41-16-2.11-21.95-2.11-10.83,0-20.01,1.94-27.53,5.83-6.28,3.22-10.04,7.77-11.28,13.64-.08,.41-.12,1.07-.12,1.98-.35,.9-.54,1.99-.6,3.24-.8-7.85-3.91-14.14-9.33-18.86-6.36-5.54-14.63-8.31-24.8-8.31-4.88,.08-10,1.03-15.38,2.85-5.29,1.74-10,4.09-14.14,7.07-5.87,4.22-10.58,9.22-14.14,15-3.47,5.7-5.21,11.53-5.21,17.48,0,1.41,.33,2.48,.99,3.22,.74,.66,1.16,.33,1.24-.99,.41-5.79,2.56-11.61,6.45-17.48,3.88-5.87,8.68-10.79,14.38-14.76,7.77-5.62,16.24-8.72,25.42-9.3,1.24-.08,2.4-.12,3.47-.12,7.11,0,12.85,1.74,17.24,5.21,5.21,4.3,7.81,10.83,7.81,19.59,0,6.7-1.82,13.89-5.46,21.58-3.64,7.69-8.31,14.38-14.01,20.09-5.7,5.62-11.33,9.05-16.86,10.29-3.06,.74-6.08,1.12-9.05,1.12s-5.58-.54-8.06-1.61c-7.52-3.06-11.28-9.75-11.28-20.09,0-7.52,2.36-15,7.07-22.44,6.12-9.59,14.14-15.54,24.06-17.86,.91-.25,1.98-.37,3.22-.37,1.32,0,2.85,.33,4.59,.99l1.98,.99c.83,0,.29-.95-1.61-2.85-1.9-1.98-4.92-2.98-9.05-2.98-1.82,0-3.8,.21-5.95,.62-7.19,1.74-13.27,5-18.23,9.8-7.85,7.52-11.78,17.03-11.78,28.52,0,8.68,2.52,15.87,7.56,21.58,5.04,5.7,11.41,8.56,19.1,8.56,2.81,0,5.74-.37,8.8-1.12,10.42-2.4,19.88-8.43,28.4-18.1,8.52-9.75,12.77-20.79,12.77-33.11,0-.78-.03-1.55-.07-2.3,.35,1.28,1.24,2.79,2.68,4.53,1.98,2.23,4.38,3.76,7.19,4.59,.33,.08,.62,.12,.87,.12,.33,0,.62-.12,.87-.37,.33-.25,.25-.54-.25-.87-.41-.41-1.32-1.03-2.73-1.86-1.32-.83-2.32-1.53-2.98-2.11-.66-.58-1.24-1.36-1.74-2.36-.41-.99-.62-1.82-.62-2.48,0-.74,.08-1.36,.25-1.86,1.07-4.96,4.42-9.05,10.04-12.28,5.7-3.31,12.48-5.5,20.34-6.57,2.07-.5,5-.74,8.8-.74s9.42,.33,16.86,.99c7.52,.66,12.52,.99,15,.99h4.71c-.25,.25-.58,.7-.99,1.36-.33,.58-.58,.99-.74,1.24-1.32,2.48-1.98,5.58-1.98,9.3,0,2.81,.37,4.46,1.12,4.96,.58,.74,1.2,1.03,1.86,.87,.66-.25,.7-.79,.12-1.61-.5-.83-.74-1.86-.74-3.1,0-2.81,1.98-6.16,5.95-10.04,.83-.83,1.94-1.74,3.35-2.73,1.4-1.07,2.36-1.86,2.85-2.36,.5-.5,.74-.99,.74-1.49s-.29-.99-.87-1.49Z" style="fill:url(#linear-gradient-19);"/></g></svg>