<svg width="233" height="232" viewBox="0 0 233 232" fill="none" xmlns="http://www.w3.org/2000/svg">
<path fill-rule="evenodd" clip-rule="evenodd" d="M222.816 9.80078H10.4753V222.142H222.816V9.80078ZM170.59 188.423C158.566 200.497 140.992 206.765 118.794 206.765C69.7732 206.765 37.8634 169.152 37.8634 116.912C37.8634 66.0652 68.3858 26.827 119.488 26.827C139.605 26.827 155.791 32.6314 167.353 42.1508C179.608 52.1344 187.007 66.2973 189.32 82.782H165.734C161.803 61.6538 145.386 47.4909 119.025 47.4909C82.4909 47.4909 61.9114 77.2097 61.9114 116.912C61.9114 158.24 84.572 186.101 119.257 186.101C150.473 186.101 165.503 164.973 167.584 140.362H191.169C190.938 157.544 182.845 176.582 170.59 188.423Z" fill="url(#paint0_linear_103_155)"/>
<path fill-rule="evenodd" clip-rule="evenodd" d="M222.816 9.80078H10.4753V222.142H222.816V9.80078ZM170.59 188.423C158.566 200.497 140.992 206.765 118.794 206.765C69.7732 206.765 37.8634 169.152 37.8634 116.912C37.8634 66.0652 68.3858 26.827 119.488 26.827C139.605 26.827 155.791 32.6314 167.353 42.1508C179.608 52.1344 187.007 66.2973 189.32 82.782H165.734C161.803 61.6538 145.386 47.4909 119.025 47.4909C82.4909 47.4909 61.9114 77.2097 61.9114 116.912C61.9114 158.24 84.572 186.101 119.257 186.101C150.473 186.101 165.503 164.973 167.584 140.362H191.169C190.938 157.544 182.845 176.582 170.59 188.423Z" fill="#C3A7FF"/>
<path d="M118.794 206.765C140.992 206.765 158.566 200.497 170.59 188.423C182.845 176.582 190.938 157.544 191.169 140.362H167.584C165.503 164.973 150.473 186.101 119.257 186.101C84.572 186.101 61.9114 158.24 61.9114 116.912C61.9114 77.2097 82.4909 47.4909 119.025 47.4909C145.386 47.4909 161.803 61.6538 165.734 82.782H189.32C187.007 66.2973 179.608 52.1344 167.353 42.1508C155.791 32.6314 139.605 26.827 119.488 26.827C68.3858 26.827 37.8634 66.0652 37.8634 116.912C37.8634 169.152 69.7732 206.765 118.794 206.765Z" fill="#252525"/>
<defs>
<linearGradient id="paint0_linear_103_155" x1="116.483" y1="9.80078" x2="116.483" y2="221.816" gradientUnits="userSpaceOnUse">
<stop stop-color="#A3A3A3"/>
<stop offset="0.265625" stop-color="#EFEFEF"/>
<stop offset="0.578125" stop-color="#B5B5B5"/>
<stop offset="0.802083" stop-color="#E0E0E0"/>
<stop offset="1" stop-color="#BFBFBF"/>
</linearGradient>
</defs>
</svg>
