<svg width="232" height="232" viewBox="0 0 232 232" fill="none" xmlns="http://www.w3.org/2000/svg">
<path fill-rule="evenodd" clip-rule="evenodd" d="M115.971 231.942C180.02 231.942 231.942 180.02 231.942 115.971C231.942 51.9219 180.02 0 115.971 0C51.9219 0 0 51.9219 0 115.971C0 180.02 51.9219 231.942 115.971 231.942ZM184.084 155.401C184.084 188.105 157.179 206.428 119.836 206.428C71.5926 206.428 47.7026 179.987 45.8471 147.051H69.2732C72.0565 173.028 89.2202 187.409 120.532 187.409C143.495 187.409 160.194 177.203 160.194 156.329C160.194 133.83 140.247 128.496 110.095 121.769C79.2467 115.275 53.0373 106.461 53.0373 73.2936C53.0373 44.3009 77.3912 27.1372 112.878 27.1372C155.324 27.1372 174.343 48.4758 178.518 77.9324H155.556C152.54 57.0577 137.464 45.6925 113.11 45.6925C90.3799 45.6925 75.5356 54.9702 75.5356 72.1339C75.5356 90.9212 94.3229 96.2558 120.3 101.59C153.7 108.317 184.084 116.899 184.084 155.401Z" fill="#D9D9D9"/>
<path fill-rule="evenodd" clip-rule="evenodd" d="M115.971 231.942C180.02 231.942 231.942 180.02 231.942 115.971C231.942 51.9219 180.02 0 115.971 0C51.9219 0 0 51.9219 0 115.971C0 180.02 51.9219 231.942 115.971 231.942ZM184.084 155.401C184.084 188.105 157.179 206.428 119.836 206.428C71.5926 206.428 47.7026 179.987 45.8471 147.051H69.2732C72.0565 173.028 89.2202 187.409 120.532 187.409C143.495 187.409 160.194 177.203 160.194 156.329C160.194 133.83 140.247 128.496 110.095 121.769C79.2467 115.275 53.0373 106.461 53.0373 73.2936C53.0373 44.3009 77.3912 27.1372 112.878 27.1372C155.324 27.1372 174.343 48.4758 178.518 77.9324H155.556C152.54 57.0577 137.464 45.6925 113.11 45.6925C90.3799 45.6925 75.5356 54.9702 75.5356 72.1339C75.5356 90.9212 94.3229 96.2558 120.3 101.59C153.7 108.317 184.084 116.899 184.084 155.401Z" fill="url(#paint0_linear_103_153)"/>
<path d="M119.836 206.428C157.179 206.428 184.084 188.105 184.084 155.401C184.084 116.899 153.7 108.317 120.3 101.59C94.3229 96.2558 75.5356 90.9212 75.5356 72.1339C75.5356 54.9702 90.3799 45.6925 113.11 45.6925C137.464 45.6925 152.54 57.0577 155.556 77.9324H178.518C174.343 48.4758 155.324 27.1372 112.878 27.1372C77.3912 27.1372 53.0373 44.3009 53.0373 73.2936C53.0373 106.461 79.2467 115.275 110.095 121.769C140.247 128.496 160.194 133.83 160.194 156.329C160.194 177.203 143.495 187.409 120.532 187.409C89.2202 187.409 72.0565 173.028 69.2732 147.051H45.8471C47.7026 179.987 71.5926 206.428 119.836 206.428Z" fill="#252525"/>
<defs>
<linearGradient id="paint0_linear_103_153" x1="115.793" y1="-1.31123e-06" x2="115.793" y2="231.585" gradientUnits="userSpaceOnUse">
<stop stop-color="#A3A3A3"/>
<stop offset="0.265625" stop-color="#EFEFEF"/>
<stop offset="0.578125" stop-color="#B5B5B5"/>
<stop offset="0.802083" stop-color="#E0E0E0"/>
<stop offset="1" stop-color="#BFBFBF"/>
</linearGradient>
</defs>
</svg>
