<svg width="233" height="232" viewBox="0 0 233 232" fill="none" xmlns="http://www.w3.org/2000/svg">
<path fill-rule="evenodd" clip-rule="evenodd" d="M223.858 9.80078H10.7004V222.958H223.858V9.80078ZM82.1323 203.283H58.2179V30.542H130.89C149.232 30.542 163.395 36.5786 172.218 47.2588C179.879 56.3138 184.523 67.4584 184.523 81.1569C184.523 112.965 165.949 132.236 128.568 132.236H82.1323V203.283ZM82.1323 51.2059H127.175C148.535 51.2059 160.841 61.6539 160.841 81.8534C160.841 101.124 149.696 112.965 126.246 112.965H82.1323V51.2059Z" fill="url(#paint0_linear_103_161)"/>
<path fill-rule="evenodd" clip-rule="evenodd" d="M223.858 9.80078H10.7004V222.958H223.858V9.80078ZM82.1323 203.283H58.2179V30.542H130.89C149.232 30.542 163.395 36.5786 172.218 47.2588C179.879 56.3138 184.523 67.4584 184.523 81.1569C184.523 112.965 165.949 132.236 128.568 132.236H82.1323V203.283ZM82.1323 51.2059H127.175C148.535 51.2059 160.841 61.6539 160.841 81.8534C160.841 101.124 149.696 112.965 126.246 112.965H82.1323V51.2059Z" fill="#C3A7FF"/>
<path fill-rule="evenodd" clip-rule="evenodd" d="M58.2179 203.283H82.1323V132.236H128.568C165.949 132.236 184.523 112.965 184.523 81.1569C184.523 67.4584 179.879 56.3138 172.218 47.2588C163.395 36.5786 149.232 30.542 130.89 30.542H58.2179V203.283ZM127.175 51.2059H82.1323V112.965H126.246C149.696 112.965 160.841 101.124 160.841 81.8534C160.841 61.6539 148.535 51.2059 127.175 51.2059Z" fill="#252525"/>
<defs>
<linearGradient id="paint0_linear_103_161" x1="117.116" y1="9.80078" x2="117.116" y2="222.631" gradientUnits="userSpaceOnUse">
<stop stop-color="#A3A3A3"/>
<stop offset="0.265625" stop-color="#EFEFEF"/>
<stop offset="0.578125" stop-color="#B5B5B5"/>
<stop offset="0.802083" stop-color="#E0E0E0"/>
<stop offset="1" stop-color="#BFBFBF"/>
</linearGradient>
</defs>
</svg>
