<svg width="233" height="232" viewBox="0 0 233 232" fill="none" xmlns="http://www.w3.org/2000/svg">
<path fill-rule="evenodd" clip-rule="evenodd" d="M222.691 9.80078H10.3502V222.142H222.691V9.80078ZM184.288 147.096C184.288 188.656 155.616 205.837 117.925 205.837C79.3096 205.837 51.5619 188.656 51.5619 147.096V30.542H75.1474V145.006C75.1474 173.332 90.8711 185.637 118.388 185.637C144.979 185.637 160.703 173.332 160.703 145.006V30.542H184.288V147.096Z" fill="#D9D9D9"/>
<path fill-rule="evenodd" clip-rule="evenodd" d="M222.691 9.80078H10.3502V222.142H222.691V9.80078ZM184.288 147.096C184.288 188.656 155.616 205.837 117.925 205.837C79.3096 205.837 51.5619 188.656 51.5619 147.096V30.542H75.1474V145.006C75.1474 173.332 90.8711 185.637 118.388 185.637C144.979 185.637 160.703 173.332 160.703 145.006V30.542H184.288V147.096Z" fill="url(#paint0_linear_103_157)"/>
<path d="M117.925 205.837C155.616 205.837 184.288 188.656 184.288 147.096V30.542H160.703V145.006C160.703 173.332 144.979 185.637 118.388 185.637C90.8711 185.637 75.1474 173.332 75.1474 145.006V30.542H51.5619V147.096C51.5619 188.656 79.3096 205.837 117.925 205.837Z" fill="#252525"/>
<defs>
<linearGradient id="paint0_linear_103_157" x1="116.358" y1="9.80078" x2="116.358" y2="221.816" gradientUnits="userSpaceOnUse">
<stop stop-color="#A3A3A3"/>
<stop offset="0.265625" stop-color="#EFEFEF"/>
<stop offset="0.578125" stop-color="#B5B5B5"/>
<stop offset="0.802083" stop-color="#E0E0E0"/>
<stop offset="1" stop-color="#BFBFBF"/>
</linearGradient>
</defs>
</svg>
